<svg width="48.000000" height="48.000000" viewBox="0 0 48 48" fill="none" xmlns="http://www.w3.org/2000/svg" xmlns:xlink="http://www.w3.org/1999/xlink">
	<desc>
			Created with Pixso.
	</desc>
	<defs>
		<clipPath id="clip1882_16891">
			<rect id="上架" width="48.000000" height="48.000000" fill="white"/>
		</clipPath>
	</defs>
	<g clip-path="url(#clip1882_16891)">
		<path id="path" d="M24.724 2.74973C24.289 2.32697 23.5778 2.32187 23.1496 2.74973L16.312 9.58856C15.9472 9.95322 15.9473 10.5445 16.312 10.9091C16.6767 11.2737 17.268 11.2737 17.6326 10.909L23.9368 4.60388L30.3674 11.0353C30.5497 11.2177 30.7887 11.3089 31.0277 11.3089C31.2668 11.3089 31.5056 11.2177 31.688 11.0354C32.0528 10.6708 32.0528 10.0796 31.6881 9.71484L24.724 2.74973Z" fill-rule="nonzero" fill="#FFFFFF"/>
		<path id="path" d="M23.8434 4.22797C23.3276 4.22797 22.9095 4.646 22.9095 5.16171L22.9095 17.9801C22.9095 18.4958 23.3276 18.9139 23.8434 18.9139C24.3591 18.9139 24.7772 18.4958 24.7772 17.9801L24.7772 5.16171C24.7772 4.646 24.3591 4.22797 23.8434 4.22797Z" fill-rule="nonzero" fill="#FFFFFF"/>
		<path id="path" d="M47.8834 29.1618C47.8834 28.6122 47.8834 28.0627 47.3337 27.5133L47.0591 27.2385L38.1908 17.1455C37.9162 16.8707 37.6414 16.5961 37.092 16.5961L32.2425 16.5961C31.4182 16.5961 30.8191 16.8972 30.8191 17.7215C30.8191 18.5457 31.4182 18.6482 32.2425 18.6482L37.1882 18.6482L44.2292 26.8116L37.1883 26.8116C36.0891 26.8116 34.9901 27.6359 34.7154 28.7348L33.3415 32.7336C33.0668 33.8326 31.9678 34.6568 30.8688 34.6568L17.6807 34.6568C16.5817 34.6568 15.1846 33.8326 14.9098 32.7336L13.3871 28.5361C12.8376 27.7119 13.0884 26.9648 11.0866 26.8876L4.34357 26.8876L11.0866 19.0224L15.7575 19.0224C16.5817 19.0224 17.1311 18.9198 17.1311 18.0957C17.1311 17.2714 16.5817 16.9204 15.7575 16.9204L11.1563 16.9204C10.8815 16.9204 10.332 17.1952 10.0573 17.47L0.940807 27.5133C0.940807 27.5133 0.116486 28.6122 0.116486 29.1618C0.116486 29.1618 0.116486 29.1618 0.116486 29.4365L0.116486 43.1742C0.116486 44.548 0.645903 45.5741 2.01964 45.5741L45.9803 45.5741C47.354 45.5741 47.8834 44.5479 47.8834 43.1742L47.8834 29.1618ZM45.9803 43.4721L2.01974 43.4721L2.01974 28.6915L11.5336 28.6915L12.9073 33.0876C13.7317 35.2856 15.2079 36.6858 17.6808 36.6858L30.3194 36.6858C32.7922 36.6858 34.7154 35.5604 35.5397 33.0876L36.9134 28.6915L45.9803 28.6915L45.9803 43.1742L45.9803 43.4721Z" fill-rule="nonzero" fill="#FFFFFF"/>
		<path id="path" d="" fill-rule="nonzero" fill="#FFFFFF"/>
	</g>
</svg>
