<svg width="48.000000" height="48.000000" viewBox="0 0 48 48" fill="none" xmlns="http://www.w3.org/2000/svg" xmlns:xlink="http://www.w3.org/1999/xlink">
	<desc>
			Created with Pixso.
	</desc>
	<defs>
		<clipPath id="clip1988_17055">
			<rect id="出库、换货出库" width="48.000000" height="48.000000" fill="white"/>
		</clipPath>
	</defs>
	<g clip-path="url(#clip1988_17055)">
		<path id="path" d="M5.28735 46.425L14.865 46.425C15.98 46.425 16.5374 45.8675 16.5374 44.7525C16.5374 43.6375 15.98 43.08 14.865 43.08L5.39233 43.08L5.39233 16.7175L23.1299 4.79248L41.1299 17.355L41.1299 25.7175C41.1299 26.8525 41.6975 27.42 42.8325 27.42C43.9673 27.42 44.5349 26.8525 44.5349 25.7175L44.5349 17.295C44.5327 16.1731 44.0701 15.2931 43.1475 14.655L25.0498 2.02498C23.8083 1.17181 22.5583 1.15932 21.2998 1.98747L3.45752 13.9875C2.50366 14.6252 2.02612 15.5177 2.0249 16.665L2.0249 43.185C2.02905 44.0824 2.34937 44.8472 2.98633 45.4796C3.62305 46.1119 4.39014 46.427 5.28735 46.425Z" fill-rule="nonzero" fill="#FFFFFF"/>
		<path id="path" d="M40.6501 37.9125L22.7852 37.9125C21.6902 37.9125 21.1426 37.365 21.1426 36.27C21.1426 35.175 21.6902 34.6275 22.7852 34.6275L40.6501 34.6275C41.7451 34.6275 42.2925 35.175 42.2925 36.27C42.2925 37.365 41.7451 37.9125 40.6501 37.9125Z" fill-rule="nonzero" fill="#FFFFFF"/>
		<path id="path" d="M35.1526 45.9975C34.4331 46.0002 33.9309 45.6714 33.6455 45.011C33.3601 44.3507 33.4651 43.7595 33.96 43.2375L40.5674 36.1725L33.6226 29.3625C32.835 28.595 32.825 27.8175 33.5925 27.03C34.3599 26.2425 35.1375 26.2325 35.925 27L44.01 34.95C44.7749 35.6979 44.7922 36.4629 44.0625 37.245L36.3599 45.495C36.0298 45.8363 35.6272 46.0038 35.1526 45.9975Z" fill-rule="nonzero" fill="#FFFFFF"/>
	</g>
</svg>
