<svg width="41.761414" height="30.919006" viewBox="0 0 41.7614 30.919" fill="none" xmlns="http://www.w3.org/2000/svg" xmlns:xlink="http://www.w3.org/1999/xlink">
	<desc>
			Created with Pixso.
	</desc>
	<defs/>
	<path id="path" d="M41.1961 14.3044L32.9958 5.73093C32.7149 5.43652 32.371 5.28949 31.9641 5.28986L26.0672 5.28986L26.0311 1.73767C26.0311 0.778137 25.253 0 24.2934 0L1.73766 0C0.778122 0 0 0.778137 0 1.73767L0 24.2934C0 25.253 0.778122 26.0311 1.73766 26.0311L4.45453 26.0311C4.49203 22.7194 7.18968 20.0452 10.5098 20.0452C13.83 20.0452 16.5277 22.7194 16.5652 26.0311L25.8919 26.0311C25.9294 22.7194 28.627 20.0452 31.9472 20.0452C35.2673 20.0452 37.965 22.7194 38.0025 26.0311L39.7233 26.0311C40.8488 26.0311 41.7614 25.1184 41.7614 23.993L41.7614 15.712C41.7614 15.187 41.5594 14.6831 41.1961 14.3044ZM37.5619 15.5995L28.38 15.5995C28.1588 15.5995 27.9797 15.4205 27.9797 15.1992L27.9797 7.90829C27.9797 7.6875 28.1588 7.50797 28.38 7.50797L31.4873 7.50797C31.6059 7.50797 31.7189 7.56094 31.7948 7.65189L37.8689 14.9424C38.0864 15.2034 37.9012 15.5995 37.5619 15.5995ZM30.8448 30.7792C32.1358 31.0849 33.3457 30.8892 34.4745 30.1921C35.6033 29.495 36.3201 28.5009 36.625 27.2097C36.9299 25.9185 36.7335 24.7087 36.0357 23.5804C35.338 22.452 34.3434 21.7357 33.0521 21.4316C31.7611 21.1259 30.5512 21.3217 29.4224 22.0187C28.2936 22.7158 27.5767 23.7099 27.2718 25.0011C26.9669 26.2923 27.1634 27.5021 27.8611 28.6305C28.5589 29.7589 29.5534 30.4751 30.8448 30.7792ZM9.40559 30.7781C10.6965 31.0836 11.9063 30.8878 13.035 30.1907C14.1637 29.4936 14.8805 28.4995 15.1853 27.2085C15.4902 25.9174 15.2938 24.7077 14.5962 23.5793C13.8985 22.451 12.9041 21.7347 11.6129 21.4305C10.3219 21.1248 9.11197 21.3205 7.98317 22.0176C6.85437 22.7147 6.13751 23.7088 5.83263 25C5.52774 26.2912 5.72417 27.501 6.42192 28.6294C7.11967 29.7577 8.11423 30.474 9.40559 30.7781Z" fill-rule="nonzero" fill="#FFFFFF"/>
</svg>
