<svg width="48.000000" height="48.000000" viewBox="0 0 48 48" fill="none" xmlns="http://www.w3.org/2000/svg" xmlns:xlink="http://www.w3.org/1999/xlink">
	<desc>
			Created with Pixso.
	</desc>
	<defs>
		<clipPath id="clip1725_16869">
			<rect id="待收货" width="48.000000" height="48.000000" fill="white"/>
		</clipPath>
	</defs>
	<g clip-path="url(#clip1725_16869)">
		<path id="path" d="M44.4591 22.8624L36.2588 14.2889C35.9779 13.9945 35.634 13.8475 35.227 13.8478L29.3302 13.8478L29.2941 10.2957C29.2941 9.33612 28.5159 8.55798 27.5564 8.55798L5.00063 8.55798C4.04109 8.55798 3.26297 9.33612 3.26297 10.2957L3.26297 32.8514C3.26297 33.8109 4.04109 34.5891 5.00063 34.5891L7.7175 34.5891C7.755 31.2773 10.4527 28.6031 13.7728 28.6031C17.093 28.6031 19.7906 31.2773 19.8281 34.5891L29.1548 34.5891C29.1924 31.2773 31.89 28.6031 35.2102 28.6031C38.5303 28.6031 41.228 31.2773 41.2655 34.5891L42.9863 34.5891C44.1117 34.5891 45.0244 33.6764 45.0244 32.551L45.0244 24.27C45.0244 23.745 44.8223 23.2411 44.4591 22.8624ZM40.8248 24.1575L31.643 24.1575C31.4217 24.1575 31.2427 23.9785 31.2427 23.7572L31.2427 16.4663C31.2427 16.2455 31.4217 16.0659 31.643 16.0659L34.7503 16.0659C34.8689 16.0659 34.9819 16.1189 35.0578 16.2099L41.1319 23.5003C41.3494 23.7614 41.1642 24.1575 40.8248 24.1575ZM34.1078 39.3372C35.3988 39.6429 36.6087 39.4472 37.7375 38.7501C38.8663 38.053 39.5831 37.0589 39.888 35.7677C40.1929 34.4765 39.9965 33.2667 39.2987 32.1383C38.601 31.0099 37.6064 30.2937 36.315 29.9896C35.024 29.6839 33.8141 29.8796 32.6853 30.5767C31.5565 31.2738 30.8397 32.2679 30.5348 33.5591C30.2299 34.8503 30.4263 36.0601 31.1241 37.1884C31.8218 38.3168 32.8164 39.0331 34.1078 39.3372ZM12.6686 39.3361C13.9595 39.6416 15.1693 39.4458 16.298 38.7487C17.4267 38.0516 18.1434 37.0575 18.4483 35.7664C18.7532 34.4754 18.5568 33.2657 17.8591 32.1373C17.1615 31.009 16.1671 30.2927 14.8758 29.9885C13.5848 29.6828 12.3749 29.8785 11.2461 30.5756C10.1173 31.2727 9.40048 32.2668 9.0956 33.558C8.79071 34.8492 8.98714 36.059 9.68489 37.1873C10.3826 38.3157 11.3772 39.032 12.6686 39.3361Z" fill-rule="nonzero" fill="#FFFFFF"/>
	</g>
</svg>
