<svg width="48.000000" height="48.000000" viewBox="0 0 48 48" fill="none" xmlns="http://www.w3.org/2000/svg" xmlns:xlink="http://www.w3.org/1999/xlink">
	<desc>
			Created with Pixso.
	</desc>
	<defs>
		<clipPath id="clip1725_17024">
			<rect id="换货入库、退货入库" width="48.000000" height="48.000000" fill="white"/>
		</clipPath>
	</defs>
	<g clip-path="url(#clip1725_17024)">
		<path id="path" d="M45.255 45.9225L27.5475 45.9225C26.3875 45.9225 25.8075 45.3425 25.8075 44.1825C25.8075 43.0225 26.3875 42.4425 27.5475 42.4425L43.5 42.4425L43.5 17.2875L24.4425 5.0625L5.45247 17.2875L5.45247 26.1525C5.45247 27.3125 4.87247 27.8925 3.71248 27.8925C2.55247 27.8925 1.97247 27.3125 1.97247 26.1525L1.97247 16.35C1.97807 15.7188 2.24557 15.2313 2.77498 14.8875L23.4825 1.55252C24.105 1.13898 24.7275 1.13898 25.35 1.55252L46.1625 14.8875C46.6995 15.2271 46.9695 15.7146 46.9725 16.35L46.9725 44.1825C46.9825 45.3375 46.41 45.9175 45.255 45.9225Z" fill-rule="nonzero" fill="#FFFFFF"/>
		<path id="path" d="M16.335 45.8475C15.8562 45.8432 15.4437 45.6757 15.0975 45.345C14.2854 44.5275 14.2854 43.71 15.0975 42.8925L22.5975 35.3925L15.0975 27.8925C14.3333 27.0779 14.3455 26.275 15.1341 25.484C15.9227 24.693 16.7255 24.6783 17.5425 25.44L26.31 34.155C27.1363 34.9725 27.1363 35.79 26.31 36.6075L17.5725 45.345C17.23 45.6848 16.8175 45.8523 16.335 45.8475Z" fill-rule="nonzero" fill="#FFFFFF"/>
		<path id="path" d="M24.195 37.11L3.81003 37.11C2.7213 37.0386 2.17694 36.4573 2.17694 35.3662C2.17694 34.2752 2.7213 33.6939 3.81003 33.6225L24.165 33.6225C25.325 33.6275 25.905 34.21 25.905 35.37C25.9202 36.5251 25.3502 37.105 24.195 37.11Z" fill-rule="nonzero" fill="#FFFFFF"/>
	</g>
</svg>
